<?xml version="1.0" encoding="UTF-8" standalone="no"?>
<!DOCTYPE svg PUBLIC "-//W3C//DTD SVG 1.1//EN"
 "http://www.w3.org/Graphics/SVG/1.1/DTD/svg11.dtd">
<!-- Generated by graphviz version 2.38.0 (20140413.2041)
 -->
<!-- Title: %3 Pages: 1 -->
<svg width="348pt" height="379pt"
 viewBox="0.00 0.00 347.75 379.48" xmlns="http://www.w3.org/2000/svg" xmlns:xlink="http://www.w3.org/1999/xlink">
<g id="graph0" class="graph" transform="scale(1 1) rotate(0) translate(4 375.48)">
<title>%3</title>
<polygon fill="white" stroke="none" points="-4,4 -4,-375.48 343.748,-375.48 343.748,4 -4,4"/>
<!-- 11 -->
<g id="node1" class="node"><title>11</title>
<ellipse fill="black" stroke="black" cx="179.748" cy="-348.732" rx="22.9987" ry="22.9987"/>
<text text-anchor="middle" x="179.748" y="-345.032" font-family="InputMono" font-size="14.00" fill="white">11</text>
</g>
<!-- 14 -->
<g id="node2" class="node"><title>14</title>
<ellipse fill="black" stroke="black" cx="148.748" cy="-267.236" rx="22.9987" ry="22.9987"/>
<text text-anchor="middle" x="148.748" y="-263.536" font-family="InputMono" font-size="14.00" fill="white">14</text>
</g>
<!-- 11&#45;&gt;14 -->
<g id="edge1" class="edge"><title>11&#45;&gt;14</title>
<path fill="none" stroke="black" d="M171.765,-327.26C167.136,-315.391 161.328,-300.496 156.704,-288.639"/>
</g>
<!-- 6 -->
<g id="node9" class="node"><title>6</title>
<ellipse fill="black" stroke="black" cx="211.748" cy="-267.236" rx="18" ry="18"/>
<text text-anchor="middle" x="211.748" y="-263.536" font-family="InputMono" font-size="14.00" fill="white">6</text>
</g>
<!-- 11&#45;&gt;6 -->
<g id="edge8" class="edge"><title>11&#45;&gt;6</title>
<path fill="none" stroke="black" d="M187.989,-327.26C193.396,-313.826 200.364,-296.518 205.353,-284.123"/>
</g>
<!-- 18 -->
<g id="node3" class="node"><title>18</title>
<ellipse fill="#ef5350" stroke="#ef5350" cx="85.748" cy="-185.74" rx="22.9987" ry="22.9987"/>
<text text-anchor="middle" x="85.748" y="-182.04" font-family="InputMono" font-size="14.00" fill="white">18</text>
</g>
<!-- 14&#45;&gt;18 -->
<g id="edge2" class="edge"><title>14&#45;&gt;18</title>
<path fill="none" stroke="black" d="M135.078,-248.986C124.511,-235.652 109.952,-217.281 99.3914,-203.956"/>
</g>
<!-- 13 -->
<g id="node7" class="node"><title>13</title>
<ellipse fill="black" stroke="black" cx="148.748" cy="-185.74" rx="22.9987" ry="22.9987"/>
<text text-anchor="middle" x="148.748" y="-182.04" font-family="InputMono" font-size="14.00" fill="white">13</text>
</g>
<!-- 14&#45;&gt;13 -->
<g id="edge6" class="edge"><title>14&#45;&gt;13</title>
<path fill="none" stroke="black" d="M148.748,-244.092C148.748,-232.974 148.748,-219.553 148.748,-208.49"/>
</g>
<!-- 19 -->
<g id="node4" class="node"><title>19</title>
<ellipse fill="black" stroke="black" cx="22.748" cy="-104.244" rx="22.9987" ry="22.9987"/>
<text text-anchor="middle" x="22.748" y="-100.544" font-family="InputMono" font-size="14.00" fill="white">19</text>
</g>
<!-- 18&#45;&gt;19 -->
<g id="edge3" class="edge"><title>18&#45;&gt;19</title>
<path fill="none" stroke="black" d="M72.0779,-167.49C61.5107,-154.156 46.9518,-135.785 36.3914,-122.46"/>
</g>
<!-- 15 -->
<g id="node5" class="node"><title>15</title>
<ellipse fill="black" stroke="black" cx="85.748" cy="-104.244" rx="22.9987" ry="22.9987"/>
<text text-anchor="middle" x="85.748" y="-100.544" font-family="InputMono" font-size="14.00" fill="white">15</text>
</g>
<!-- 18&#45;&gt;15 -->
<g id="edge4" class="edge"><title>18&#45;&gt;15</title>
<path fill="none" stroke="black" d="M85.748,-162.596C85.748,-151.478 85.748,-138.057 85.748,-126.994"/>
</g>
<!-- 16 -->
<g id="node6" class="node"><title>16</title>
<ellipse fill="#ef5350" stroke="#ef5350" cx="85.748" cy="-22.748" rx="22.9987" ry="22.9987"/>
<text text-anchor="middle" x="85.748" y="-19.048" font-family="InputMono" font-size="14.00" fill="white">16</text>
</g>
<!-- 15&#45;&gt;16 -->
<g id="edge5" class="edge"><title>15&#45;&gt;16</title>
<path fill="none" stroke="black" d="M85.748,-81.0999C85.748,-69.982 85.748,-56.5613 85.748,-45.4985"/>
</g>
<!-- 12 -->
<g id="node8" class="node"><title>12</title>
<ellipse fill="#ef5350" stroke="#ef5350" cx="148.748" cy="-104.244" rx="22.9987" ry="22.9987"/>
<text text-anchor="middle" x="148.748" y="-100.544" font-family="InputMono" font-size="14.00" fill="white">12</text>
</g>
<!-- 13&#45;&gt;12 -->
<g id="edge7" class="edge"><title>13&#45;&gt;12</title>
<path fill="none" stroke="black" d="M148.748,-162.596C148.748,-151.478 148.748,-138.057 148.748,-126.994"/>
</g>
<!-- 10 -->
<g id="node10" class="node"><title>10</title>
<ellipse fill="black" stroke="black" cx="211.748" cy="-185.74" rx="22.9987" ry="22.9987"/>
<text text-anchor="middle" x="211.748" y="-182.04" font-family="InputMono" font-size="14.00" fill="white">10</text>
</g>
<!-- 6&#45;&gt;10 -->
<g id="edge9" class="edge"><title>6&#45;&gt;10</title>
<path fill="none" stroke="black" d="M211.748,-248.986C211.748,-237.114 211.748,-221.247 211.748,-208.505"/>
</g>
<!-- 3 -->
<g id="node12" class="node"><title>3</title>
<ellipse fill="#ef5350" stroke="#ef5350" cx="270.748" cy="-185.74" rx="18" ry="18"/>
<text text-anchor="middle" x="270.748" y="-182.04" font-family="InputMono" font-size="14.00" fill="white">3</text>
</g>
<!-- 6&#45;&gt;3 -->
<g id="edge11" class="edge"><title>6&#45;&gt;3</title>
<path fill="none" stroke="black" d="M222.025,-252.389C232.788,-237.887 249.598,-215.237 260.391,-200.695"/>
</g>
<!-- 9 -->
<g id="node11" class="node"><title>9</title>
<ellipse fill="#ef5350" stroke="#ef5350" cx="211.748" cy="-104.244" rx="18" ry="18"/>
<text text-anchor="middle" x="211.748" y="-100.544" font-family="InputMono" font-size="14.00" fill="white">9</text>
</g>
<!-- 10&#45;&gt;9 -->
<g id="edge10" class="edge"><title>10&#45;&gt;9</title>
<path fill="none" stroke="black" d="M211.748,-162.596C211.748,-149.916 211.748,-134.241 211.748,-122.484"/>
</g>
<!-- 4 -->
<g id="node13" class="node"><title>4</title>
<ellipse fill="black" stroke="black" cx="267.748" cy="-104.244" rx="18" ry="18"/>
<text text-anchor="middle" x="267.748" y="-100.544" font-family="InputMono" font-size="14.00" fill="white">4</text>
</g>
<!-- 3&#45;&gt;4 -->
<g id="edge12" class="edge"><title>3&#45;&gt;4</title>
<path fill="none" stroke="black" d="M270.097,-167.49C269.594,-154.156 268.901,-135.785 268.398,-122.46"/>
</g>
<!-- 1 -->
<g id="node15" class="node"><title>1</title>
<ellipse fill="black" stroke="black" cx="321.748" cy="-104.244" rx="18" ry="18"/>
<text text-anchor="middle" x="321.748" y="-100.544" font-family="InputMono" font-size="14.00" fill="white">1</text>
</g>
<!-- 3&#45;&gt;1 -->
<g id="edge14" class="edge"><title>3&#45;&gt;1</title>
<path fill="none" stroke="black" d="M280.102,-170.159C289.304,-155.815 303.272,-134.044 312.453,-119.732"/>
</g>
<!-- 5 -->
<g id="node14" class="node"><title>5</title>
<ellipse fill="#ef5350" stroke="#ef5350" cx="267.748" cy="-22.748" rx="18" ry="18"/>
<text text-anchor="middle" x="267.748" y="-19.048" font-family="InputMono" font-size="14.00" fill="white">5</text>
</g>
<!-- 4&#45;&gt;5 -->
<g id="edge13" class="edge"><title>4&#45;&gt;5</title>
<path fill="none" stroke="black" d="M267.748,-85.9945C267.748,-72.6604 267.748,-54.2894 267.748,-40.9638"/>
</g>
</g>
</svg>
