<?xml version="1.0" encoding="UTF-8" standalone="no"?>
<!DOCTYPE svg PUBLIC "-//W3C//DTD SVG 1.1//EN"
 "http://www.w3.org/Graphics/SVG/1.1/DTD/svg11.dtd">
<!-- Generated by graphviz version 2.38.0 (20140413.2041)
 -->
<!-- Title: G Pages: 1 -->
<svg width="1547pt" height="1267pt"
 viewBox="0.00 0.00 371.20 304.19" xmlns="http://www.w3.org/2000/svg" xmlns:xlink="http://www.w3.org/1999/xlink">
<g id="graph0" class="graph" transform="scale(4.16667 4.16667) rotate(0) translate(21.6 282.59)">
<title>G</title>
<polygon fill="white" stroke="none" points="-21.6,21.6 -21.6,-282.59 349.6,-282.59 349.6,21.6 -21.6,21.6"/>
<!-- 3 -->
<g id="node1" class="node"><title>3</title>
<ellipse fill="black" stroke="black" cx="91" cy="-242.99" rx="18" ry="18"/>
<text text-anchor="middle" x="91" y="-239.29" font-family="InputMono-Regular.ttf" font-size="14.00" fill="white">3</text>
</g>
<!-- 2 -->
<g id="node2" class="node"><title>2</title>
<ellipse fill="black" stroke="black" cx="18" cy="-169.491" rx="18" ry="18"/>
<text text-anchor="middle" x="18" y="-165.791" font-family="InputMono-Regular.ttf" font-size="14.00" fill="white">2</text>
</g>
<!-- 3&#45;&gt;2 -->
<g id="edge1" class="edge"><title>3&#45;&gt;2</title>
<path fill="none" stroke="black" d="M78.6165,-229.861C67.4631,-218.937 50.8716,-202.687 37.8651,-189.948"/>
<polygon fill="black" stroke="black" points="30.6896,-182.92 40.9825,-186.702 34.2617,-186.418 37.8338,-189.917 37.8338,-189.917 37.8338,-189.917 34.2617,-186.418 34.685,-193.132 30.6896,-182.92 30.6896,-182.92"/>
</g>
<!-- :3 -->
<g id="node3" class="node"><title>:3</title>
</g>
<!-- 3&#45;&gt;:3 -->
<g id="edge2" class="edge"><title>3&#45;&gt;:3</title>
</g>
<!-- 5 -->
<g id="node4" class="node"><title>5</title>
<ellipse fill="black" stroke="black" cx="164" cy="-169.491" rx="18" ry="18"/>
<text text-anchor="middle" x="164" y="-165.791" font-family="InputMono-Regular.ttf" font-size="14.00" fill="white">5</text>
</g>
<!-- 3&#45;&gt;5 -->
<g id="edge3" class="edge"><title>3&#45;&gt;5</title>
<path fill="none" stroke="black" d="M103.383,-229.861C114.537,-218.937 131.128,-202.687 144.135,-189.948"/>
<polygon fill="black" stroke="black" points="151.31,-182.92 147.315,-193.132 147.738,-186.418 144.166,-189.917 144.166,-189.917 144.166,-189.917 147.738,-186.418 141.017,-186.702 151.31,-182.92 151.31,-182.92"/>
</g>
<!-- 4 -->
<g id="node5" class="node"><title>4</title>
<ellipse fill="#ef5350" stroke="black" cx="91" cy="-94.4948" rx="18" ry="18"/>
<text text-anchor="middle" x="91" y="-90.7948" font-family="InputMono-Regular.ttf" font-size="14.00" fill="white">4</text>
</g>
<!-- 5&#45;&gt;4 -->
<g id="edge4" class="edge"><title>5&#45;&gt;4</title>
<path fill="none" stroke="black" d="M151.617,-156.108C140.463,-144.956 123.872,-128.365 110.865,-115.359"/>
<polygon fill="black" stroke="black" points="103.69,-108.184 113.943,-112.073 107.225,-111.719 110.761,-115.255 110.761,-115.255 110.761,-115.255 107.225,-111.719 107.579,-118.437 103.69,-108.184 103.69,-108.184"/>
</g>
<!-- :5 -->
<g id="node6" class="node"><title>:5</title>
</g>
<!-- 5&#45;&gt;:5 -->
<g id="edge5" class="edge"><title>5&#45;&gt;:5</title>
</g>
<!-- 6 -->
<g id="node7" class="node"><title>6</title>
<ellipse fill="#ef5350" stroke="black" cx="237" cy="-94.4948" rx="18" ry="18"/>
<text text-anchor="middle" x="237" y="-90.7948" font-family="InputMono-Regular.ttf" font-size="14.00" fill="white">6</text>
</g>
<!-- 5&#45;&gt;6 -->
<g id="edge6" class="edge"><title>5&#45;&gt;6</title>
<path fill="none" stroke="black" d="M176.383,-156.108C187.537,-144.956 204.128,-128.365 217.135,-115.359"/>
<polygon fill="black" stroke="black" points="224.31,-108.184 220.421,-118.437 220.775,-111.719 217.239,-115.255 217.239,-115.255 217.239,-115.255 220.775,-111.719 214.057,-112.073 224.31,-108.184 224.31,-108.184"/>
</g>
<!-- :6 -->
<g id="node8" class="node"><title>:6</title>
</g>
<!-- 6&#45;&gt;:6 -->
<g id="edge7" class="edge"><title>6&#45;&gt;:6</title>
</g>
<!-- 7 -->
<g id="node9" class="node"><title>7</title>
<ellipse fill="black" stroke="black" cx="310" cy="-19.4983" rx="18" ry="18"/>
<text text-anchor="middle" x="310" y="-15.7983" font-family="InputMono-Regular.ttf" font-size="14.00" fill="white">7</text>
</g>
<!-- 6&#45;&gt;7 -->
<g id="edge8" class="edge"><title>6&#45;&gt;7</title>
<path fill="none" stroke="black" d="M249.383,-81.1119C260.537,-69.959 277.128,-53.3683 290.135,-40.3624"/>
<polygon fill="black" stroke="black" points="297.31,-33.1872 293.421,-43.4402 293.775,-36.7227 290.239,-40.2582 290.239,-40.2582 290.239,-40.2582 293.775,-36.7227 287.057,-37.0761 297.31,-33.1872 297.31,-33.1872"/>
</g>
</g>
</svg>
